<svg width="144" height="32" viewBox="0 0 144 32" fill="none" xmlns="http://www.w3.org/2000/svg">
<path d="M9.33171 4.00077C9.33171 3.26442 9.92867 2.66748 10.665 2.66748H22.665C23.4014 2.66748 23.9984 3.26442 23.9984 4.00077V7.334C23.9984 8.07036 23.4014 8.6673 22.665 8.6673H10.665C9.92867 8.6673 9.33171 9.26424 9.33171 10.0006V12.6672C9.33171 13.4036 9.92867 14.0005 10.665 14.0005H27.9984C28.7348 14.0005 29.3317 14.5974 29.3317 15.3338V22.0002C29.3317 22.7366 28.7348 23.3335 27.9984 23.3335H23.9984C23.262 23.3335 22.665 23.9304 22.665 24.6668V28C22.665 28.7364 22.0681 29.3333 21.3317 29.3333H9.33171C8.59533 29.3333 7.99837 28.7364 7.99837 28V24.6668C7.99837 23.9304 8.59533 23.3335 9.33171 23.3335H21.3317C22.0681 23.3335 22.665 22.7366 22.665 22.0002V19.3336C22.665 18.5973 22.0681 18.0003 21.3317 18.0003H3.99837C3.262 18.0003 2.66504 17.4034 2.66504 16.6671V10.0006C2.66504 9.26424 3.262 8.6673 3.99837 8.6673H7.99837C8.73475 8.6673 9.33171 8.07036 9.33171 7.334V4.00077Z" fill="#27A376"/>
<path d="M47.1457 25.5996C51.3057 25.5996 53.679 23.6797 53.679 20.4264C53.679 17.7065 52.0257 16.1066 49.119 15.5199L45.4924 14.7733C43.7057 14.4 42.879 13.4933 42.879 12.1867C42.879 10.4801 44.2657 9.44013 46.639 9.44013C49.359 9.44013 50.6657 10.9601 50.9324 12.88H53.3324C53.039 9.57346 50.9057 7.2002 46.719 7.2002C42.8524 7.2002 40.5057 9.3068 40.5057 12.32C40.5057 14.8266 42.079 16.5066 44.9857 17.0932L48.5324 17.8132C50.3724 18.1865 51.279 19.0665 51.279 20.5331C51.279 22.2664 49.839 23.3597 47.1457 23.3597C44.1857 23.3597 42.559 22.0264 42.399 19.8131H39.999C40.1857 23.333 42.6124 25.5996 47.1457 25.5996Z" fill="#0D0D0D"/>
<path d="M61.6076 25.332H64.1943V23.2787H62.4076C61.1009 23.2787 60.6209 22.852 60.6209 21.7321V14.6123H64.1943V12.639H60.6209V8.63916H58.4609V10.0258C58.4609 11.7591 58.2743 12.639 56.7543 12.639H55.2876V14.6123H58.2476V22.1054C58.2476 24.4253 59.4476 25.332 61.6076 25.332Z" fill="#0D0D0D"/>
<path d="M70.7779 25.5983C72.7512 25.5983 73.9245 24.905 74.8045 23.5717H75.0179C75.4179 24.6917 76.4045 25.3317 77.9512 25.3317H78.6712V23.1984H78.3245C77.6579 23.1984 77.1512 22.8784 77.1512 22.1851V16.9319C77.1512 13.972 75.1512 12.3721 71.8979 12.3721C68.8045 12.3721 66.9112 14.1853 66.6712 16.8519H68.8845C69.1245 15.3853 70.0312 14.3987 71.8179 14.3987C73.7645 14.3987 74.8045 15.3586 74.8045 17.1719V17.8119H71.2578C68.2712 17.8119 66.2979 19.2252 66.2979 21.7051C66.2979 23.9984 68.0845 25.5983 70.7779 25.5983ZM68.6178 21.5718C68.6178 20.2652 69.5779 19.7052 71.3912 19.7052H74.8045V20.0785C74.8045 22.2118 73.2312 23.5717 71.1245 23.5717C69.6045 23.5717 68.6178 22.8251 68.6178 21.5718Z" fill="#0D0D0D"/>
<path d="M86.7274 25.5983C89.874 25.5983 92.034 23.8384 92.5407 20.6918H90.2741C89.8207 22.5051 88.6741 23.5184 86.7541 23.5184C84.4874 23.5184 82.9674 21.8651 82.9674 18.9852C82.9674 16.1319 84.4874 14.452 86.8074 14.452C88.6474 14.452 89.8207 15.4653 90.2741 17.2786H92.5407C92.034 14.1853 90.0874 12.3721 86.7541 12.3721C83.0741 12.3721 80.5674 15.0653 80.5674 18.9852C80.5674 22.9051 83.0207 25.5983 86.7274 25.5983Z" fill="#0D0D0D"/>
<path d="M95.5615 25.3333H97.9349V20.7467L99.3749 19.3868H99.5349L103.908 25.3333H106.575V25.0666L101.268 17.8935V17.7068L106.308 12.907V12.6403H103.668L98.1482 17.8935H97.9349V7.17383H95.5615V25.3333Z" fill="#0D0D0D"/>
<path d="M110.328 11.2537V12.6403H107.475V14.6136H110.328V25.3333H112.701V14.6136H120.035V12.6403H112.701V11.3604C112.701 9.7871 113.235 9.1471 114.941 9.1471H116.035V7.17383H114.888C111.661 7.17383 110.328 8.53379 110.328 11.2537Z" fill="#0D0D0D"/>
<path d="M118.739 25.3333H121.139V12.6403H118.739V25.3333ZM118.659 9.94709H121.219V7.17383H118.659V9.94709Z" fill="#0D0D0D"/>
<path d="M123.866 25.3331H126.32L129.546 20.6399H129.733L133.066 25.3331H135.706V25.0664L131.226 18.8533V18.6666L135.332 12.9068V12.6401H132.826L129.733 16.9867H129.573L126.64 12.6401H124.026V12.9068L128.053 18.7733V19.0133L123.866 25.0664V25.3331Z" fill="#0D0D0D"/>
</svg>
